<svg xmlns="http://www.w3.org/2000/svg" xmlns:xlink="http://www.w3.org/1999/xlink" preserveAspectRatio="xMidYMid" width="19" height="19" viewBox="0 0 19 19">
  <defs>
    <style>

      .cls-2 {
        fill: #ffffff;
        opacity: 0.7;
      }
    </style>
  </defs>
  <path d="M11.891,9.062 C11.891,9.062 17.548,14.719 17.548,14.719 C18.329,15.500 18.329,16.766 17.548,17.547 C16.767,18.328 15.500,18.328 14.719,17.547 C14.719,17.547 9.062,11.890 9.062,11.890 C9.062,11.890 3.406,17.547 3.406,17.547 C2.625,18.328 1.358,18.328 0.577,17.547 C-0.204,16.766 -0.204,15.500 0.577,14.719 C0.577,14.719 6.234,9.062 6.234,9.062 C6.234,9.062 0.577,3.405 0.577,3.405 C-0.204,2.624 -0.204,1.357 0.577,0.577 C1.358,-0.205 2.625,-0.205 3.406,0.577 C3.406,0.577 9.062,6.234 9.062,6.234 C9.062,6.234 14.719,0.577 14.719,0.577 C15.500,-0.205 16.767,-0.205 17.548,0.577 C18.329,1.357 18.329,2.624 17.548,3.405 C17.548,3.405 11.891,9.062 11.891,9.062 Z" id="path-1" class="cls-2" fill-rule="evenodd"/>
</svg>
