<svg xmlns="http://www.w3.org/2000/svg" xmlns:xlink="http://www.w3.org/1999/xlink" preserveAspectRatio="xMidYMid" width="15" height="15" viewBox="0 0 15 15">
  <defs>
    <style>

      .cls-2 {
        fill: #e45028;
        opacity: 0.7;
      }
    </style>
  </defs>
  <path d="M9.824,7.487 C9.824,7.487 14.497,12.160 14.497,12.160 C15.143,12.806 15.143,13.852 14.497,14.497 C13.852,15.142 12.806,15.142 12.161,14.497 C12.161,14.497 7.487,9.824 7.487,9.824 C7.487,9.824 2.814,14.497 2.814,14.497 C2.168,15.142 1.122,15.142 0.477,14.497 C-0.168,13.852 -0.168,12.806 0.477,12.160 C0.477,12.160 5.150,7.487 5.150,7.487 C5.150,7.487 0.477,2.813 0.477,2.813 C-0.168,2.168 -0.168,1.122 0.477,0.477 C1.122,-0.169 2.168,-0.169 2.814,0.477 C2.814,0.477 7.487,5.150 7.487,5.150 C7.487,5.150 12.161,0.477 12.161,0.477 C12.806,-0.169 13.852,-0.169 14.497,0.477 C15.143,1.122 15.143,2.168 14.497,2.813 C14.497,2.813 9.824,7.487 9.824,7.487 Z" id="path-1" class="cls-2" fill-rule="evenodd"/>
</svg>
